<svg width="20" height="19" viewBox="0 0 20 19" fill="none" xmlns="http://www.w3.org/2000/svg">
<path d="M9.32779 17.7992L9.32773 17.7991C5.76259 15.379 4.21997 13.7204 3.3698 12.6845C1.5576 10.4759 0.691288 8.21018 0.715724 5.75749C0.744174 2.95269 2.99437 0.672268 5.73032 0.672268C7.71992 0.672268 9.09877 1.79285 9.90317 2.72845L9.90326 2.72855C9.93138 2.76093 9.96613 2.78689 10.0051 2.80469C10.0442 2.82248 10.0866 2.83169 10.1294 2.83169C10.1723 2.83169 10.2147 2.82248 10.2537 2.80469C10.2927 2.78689 10.3275 2.76093 10.3556 2.72855L10.3557 2.72844C11.1601 1.79195 12.5389 0.672268 14.5286 0.672268C17.2645 0.672268 19.5147 2.95269 19.5431 5.75795C19.5676 8.21108 18.7004 10.4768 16.8891 12.6849C16.0389 13.7208 14.4963 15.3794 10.9311 17.7996L10.9311 17.7996C10.6948 17.9607 10.4154 18.047 10.1294 18.0472L10.1294 18.0745L10.1295 18.0472C9.8434 18.0469 9.56406 17.9604 9.32779 17.7992Z" fill="black" stroke="#4C4850" stroke-width="0.054467"/>
</svg>
