<svg width="32" height="32" viewBox="0 0 32 32" fill="none" xmlns="http://www.w3.org/2000/svg">
<g clip-path="url(#clip0_6359_3308)">
<path d="M12.9999 32.0001C12.6839 32.0017 12.3749 31.9068 12.1143 31.7281C11.8536 31.5494 11.6537 31.2954 11.5412 31.0001L9.05119 24.5251C9.00076 24.3946 8.92362 24.2761 8.8247 24.1772C8.72579 24.0783 8.6073 24.0011 8.47682 23.9507L1.99994 21.4588C1.70491 21.3456 1.45114 21.1455 1.27214 20.8851C1.09314 20.6247 0.997313 20.3161 0.997313 20.0001C0.997313 19.684 1.09314 19.3755 1.27214 19.115C1.45114 18.8546 1.70491 18.6546 1.99994 18.5413L8.47494 16.0513C8.60542 16.0009 8.72391 15.9237 8.82283 15.8248C8.92174 15.7259 8.99889 15.6074 9.04932 15.4769L11.5412 9.00007C11.6544 8.70504 11.8545 8.45127 12.1149 8.27227C12.3753 8.09327 12.6839 7.99744 12.9999 7.99744C13.316 7.99744 13.6246 8.09327 13.885 8.27227C14.1454 8.45127 14.3455 8.70504 14.4587 9.00007L16.9487 15.4751C16.9991 15.6055 17.0763 15.724 17.1752 15.823C17.2741 15.9219 17.3926 15.999 17.5231 16.0494L23.9606 18.5263C24.2676 18.6401 24.5321 18.8458 24.7181 19.1153C24.9041 19.3848 25.0025 19.7051 24.9999 20.0326C24.9952 20.3431 24.8973 20.645 24.719 20.8993C24.5407 21.1536 24.2902 21.3485 23.9999 21.4588L17.5249 23.9488C17.3945 23.9993 17.276 24.0764 17.1771 24.1753C17.0781 24.2742 17.001 24.3927 16.9506 24.5232L14.4587 31.0001C14.3462 31.2954 14.1463 31.5494 13.8856 31.7281C13.625 31.9068 13.316 32.0017 12.9999 32.0001ZM5.49994 11.0001C5.31466 11.0001 5.13374 10.9439 4.981 10.839C4.82826 10.7342 4.71088 10.5855 4.64432 10.4126L3.59057 7.67257C3.56773 7.61265 3.53248 7.55823 3.48713 7.51288C3.44179 7.46753 3.38737 7.43228 3.32744 7.40945L0.587443 6.3557C0.414555 6.28912 0.265891 6.17173 0.161038 6.01899C0.0561847 5.86625 6.10352e-05 5.68534 6.10352e-05 5.50007C6.10352e-05 5.31481 0.0561847 5.13389 0.161038 4.98115C0.265891 4.82841 0.414555 4.71102 0.587443 4.64445L3.32744 3.5907C3.38731 3.56775 3.44167 3.53247 3.48701 3.48714C3.53234 3.4418 3.56763 3.38744 3.59057 3.32757L4.63494 0.611946C4.69384 0.452073 4.79519 0.311272 4.92811 0.204677C5.06102 0.0980819 5.22047 0.0297227 5.38932 0.00694629C5.59204 -0.0176973 5.79718 0.0260393 5.97222 0.131221C6.14725 0.236402 6.28217 0.397008 6.35557 0.587571L7.40932 3.32757C7.43226 3.38744 7.46755 3.4418 7.51288 3.48714C7.55821 3.53247 7.61258 3.56775 7.67244 3.5907L10.4124 4.64445C10.5853 4.71102 10.734 4.82841 10.8388 4.98115C10.9437 5.13389 10.9998 5.31481 10.9998 5.50007C10.9998 5.68534 10.9437 5.86625 10.8388 6.01899C10.734 6.17173 10.5853 6.28912 10.4124 6.3557L7.67244 7.40945C7.61252 7.43228 7.5581 7.46753 7.51275 7.51288C7.46741 7.55823 7.43216 7.61265 7.40932 7.67257L6.35557 10.4126C6.28901 10.5855 6.17163 10.7342 6.01889 10.839C5.86615 10.9439 5.68522 11.0001 5.49994 11.0001ZM24.9999 16.0001C24.7978 16 24.6005 15.9387 24.4339 15.8242C24.2673 15.7098 24.1393 15.5475 24.0668 15.3588L22.6393 11.6482C22.6142 11.5828 22.5756 11.5234 22.5261 11.4739C22.4766 11.4244 22.4172 11.3858 22.3518 11.3607L18.6412 9.9332C18.4527 9.86056 18.2906 9.73252 18.1763 9.56595C18.0619 9.39939 18.0007 9.2021 18.0007 9.00007C18.0007 8.79804 18.0619 8.60076 18.1763 8.43419C18.2906 8.26762 18.4527 8.13959 18.6412 8.06695L22.3518 6.63945C22.4172 6.61433 22.4766 6.57577 22.5261 6.52624C22.5756 6.47671 22.6142 6.41733 22.6393 6.35195L24.0562 2.66757C24.1209 2.49334 24.2316 2.3399 24.3765 2.22357C24.5215 2.10725 24.6952 2.03238 24.8793 2.00695C25.1005 1.98017 25.3244 2.02804 25.5153 2.14297C25.7062 2.2579 25.8532 2.43329 25.9331 2.64132L27.3606 6.35195C27.3857 6.41733 27.4242 6.47671 27.4738 6.52624C27.5233 6.57577 27.5827 6.61433 27.6481 6.63945L31.3587 8.06695C31.5472 8.13959 31.7093 8.26762 31.8236 8.43419C31.9379 8.60076 31.9991 8.79804 31.9991 9.00007C31.9991 9.2021 31.9379 9.39939 31.8236 9.56595C31.7093 9.73252 31.5472 9.86056 31.3587 9.9332L27.6481 11.3607C27.5827 11.3858 27.5233 11.4244 27.4738 11.4739C27.4242 11.5234 27.3857 11.5828 27.3606 11.6482L25.9331 15.3588C25.8606 15.5475 25.7326 15.7098 25.566 15.8242C25.3994 15.9387 25.2021 16 24.9999 16.0001Z" fill="black"/>
</g>
<defs>
<clipPath id="clip0_6359_3308">
<rect width="32" height="32" fill="white"/>
</clipPath>
</defs>
</svg>
