<svg width="19" height="20" viewBox="0 0 19 20" fill="none" xmlns="http://www.w3.org/2000/svg">
<path d="M9.53892 9.03947C10.1806 9.03947 10.7009 8.51924 10.7009 7.87751C10.7009 7.23577 10.1806 6.71555 9.53892 6.71555C8.89718 6.71555 8.37695 7.23577 8.37695 7.87751C8.37695 8.51924 8.89718 9.03947 9.53892 9.03947Z" fill="#112211"/>
<path d="M9.53882 2.06769C6.33543 2.06769 3.729 4.56046 3.729 7.62332C3.729 9.08195 4.39386 11.0217 5.70507 13.3888C6.75809 15.2894 7.97634 17.008 8.60997 17.8631C8.71704 18.0092 8.85703 18.1281 9.0186 18.21C9.18017 18.2919 9.35876 18.3346 9.53991 18.3346C9.72105 18.3346 9.89964 18.2919 10.0612 18.21C10.2228 18.1281 10.3628 18.0092 10.4698 17.8631C11.1024 17.008 12.3217 15.2894 13.3747 13.3888C14.6838 11.0224 15.3486 9.08267 15.3486 7.62332C15.3486 4.56046 12.7422 2.06769 9.53882 2.06769ZM9.53882 10.2014C9.07919 10.2014 8.62988 10.0651 8.24771 9.80977C7.86555 9.55442 7.56768 9.19147 7.39179 8.76683C7.2159 8.34219 7.16988 7.87492 7.25954 7.42412C7.34921 6.97333 7.57055 6.55924 7.89555 6.23424C8.22056 5.90923 8.63464 5.6879 9.08544 5.59823C9.53624 5.50856 10.0035 5.55458 10.4281 5.73047C10.8528 5.90637 11.2157 6.20423 11.4711 6.5864C11.7264 6.96856 11.8627 7.41787 11.8627 7.8775C11.8621 8.49364 11.617 9.08435 11.1813 9.52002C10.7457 9.95569 10.155 10.2008 9.53882 10.2014Z" fill="#112211"/>
</svg>
