<svg width="276" height="22" viewBox="0 0 276 22" fill="none" xmlns="http://www.w3.org/2000/svg">
<path d="M0.179059 17V1.43529H6.58282C7.96141 1.43529 9.13988 1.65765 10.1182 2.10235C11.1114 2.54706 11.8748 3.18447 12.4085 4.01459C12.9421 4.84471 13.2089 5.83047 13.2089 6.97188C13.2089 8.11329 12.9421 9.09906 12.4085 9.92918C11.8748 10.7593 11.1114 11.3967 10.1182 11.8414C9.13988 12.2861 7.96141 12.5085 6.58282 12.5085H1.78L3.06965 11.1521V17H0.179059ZM3.06965 11.4634L1.78 10.0626H6.44941C7.72424 10.0626 8.68035 9.79576 9.31776 9.26212C9.97 8.71365 10.2961 7.95023 10.2961 6.97188C10.2961 5.97871 9.97 5.21529 9.31776 4.68165C8.68035 4.148 7.72424 3.88118 6.44941 3.88118H1.78L3.06965 2.45812V11.4634ZM20.8808 17.1556C19.6653 17.1556 18.5832 16.8962 17.6345 16.3774C16.6858 15.8438 15.9372 15.1174 15.3887 14.1984C14.8402 13.2793 14.566 12.2342 14.566 11.0632C14.566 9.87729 14.8402 8.83224 15.3887 7.928C15.9372 7.00894 16.6858 6.29 17.6345 5.77118C18.5832 5.25235 19.6653 4.99294 20.8808 4.99294C22.1112 4.99294 23.2007 5.25235 24.1494 5.77118C25.1129 6.29 25.8615 7.00153 26.3952 7.90576C26.9436 8.81 27.2179 9.86247 27.2179 11.0632C27.2179 12.2342 26.9436 13.2793 26.3952 14.1984C25.8615 15.1174 25.1129 15.8438 24.1494 16.3774C23.2007 16.8962 22.1112 17.1556 20.8808 17.1556ZM20.8808 14.7765C21.5627 14.7765 22.1705 14.6282 22.7041 14.3318C23.2378 14.0353 23.6528 13.6054 23.9493 13.0421C24.2606 12.4788 24.4162 11.8192 24.4162 11.0632C24.4162 10.2924 24.2606 9.63271 23.9493 9.08424C23.6528 8.52094 23.2378 8.09106 22.7041 7.79459C22.1705 7.49812 21.5701 7.34988 20.903 7.34988C20.2212 7.34988 19.6134 7.49812 19.0798 7.79459C18.5609 8.09106 18.1459 8.52094 17.8346 9.08424C17.5233 9.63271 17.3676 10.2924 17.3676 11.0632C17.3676 11.8192 17.5233 12.4788 17.8346 13.0421C18.1459 13.6054 18.5609 14.0353 19.0798 14.3318C19.6134 14.6282 20.2138 14.7765 20.8808 14.7765ZM35.3668 17.1556C34.1216 17.1556 33.0098 16.8962 32.0315 16.3774C31.0679 15.8438 30.3119 15.1174 29.7635 14.1984C29.215 13.2793 28.9408 12.2342 28.9408 11.0632C28.9408 9.87729 29.215 8.83224 29.7635 7.928C30.3119 7.00894 31.0679 6.29 32.0315 5.77118C33.0098 5.25235 34.1216 4.99294 35.3668 4.99294C36.523 4.99294 37.5384 5.23012 38.413 5.70447C39.3024 6.164 39.9769 6.84588 40.4364 7.75012L38.3018 8.99529C37.9461 8.432 37.5088 8.01694 36.9899 7.75012C36.4859 7.48329 35.9375 7.34988 35.3445 7.34988C34.6626 7.34988 34.0475 7.49812 33.499 7.79459C32.9505 8.09106 32.5206 8.52094 32.2093 9.08424C31.8981 9.63271 31.7424 10.2924 31.7424 11.0632C31.7424 11.834 31.8981 12.5011 32.2093 13.0644C32.5206 13.6128 32.9505 14.0353 33.499 14.3318C34.0475 14.6282 34.6626 14.7765 35.3445 14.7765C35.9375 14.7765 36.4859 14.6431 36.9899 14.3762C37.5088 14.1094 37.9461 13.6944 38.3018 13.1311L40.4364 14.3762C39.9769 15.2656 39.3024 15.9549 38.413 16.4441C37.5384 16.9185 36.523 17.1556 35.3668 17.1556ZM48.113 17.1556C46.8678 17.1556 45.756 16.8962 44.7777 16.3774C43.8141 15.8438 43.0581 15.1174 42.5097 14.1984C41.9612 13.2793 41.687 12.2342 41.687 11.0632C41.687 9.87729 41.9612 8.83224 42.5097 7.928C43.0581 7.00894 43.8141 6.29 44.7777 5.77118C45.756 5.25235 46.8678 4.99294 48.113 4.99294C49.2692 4.99294 50.2846 5.23012 51.1592 5.70447C52.0486 6.164 52.7231 6.84588 53.1826 7.75012L51.048 8.99529C50.6923 8.432 50.255 8.01694 49.7361 7.75012C49.2321 7.48329 48.6837 7.34988 48.0907 7.34988C47.4088 7.34988 46.7937 7.49812 46.2452 7.79459C45.6967 8.09106 45.2668 8.52094 44.9556 9.08424C44.6443 9.63271 44.4886 10.2924 44.4886 11.0632C44.4886 11.834 44.6443 12.5011 44.9556 13.0644C45.2668 13.6128 45.6967 14.0353 46.2452 14.3318C46.7937 14.6282 47.4088 14.7765 48.0907 14.7765C48.6837 14.7765 49.2321 14.6431 49.7361 14.3762C50.255 14.1094 50.6923 13.6944 51.048 13.1311L53.1826 14.3762C52.7231 15.2656 52.0486 15.9549 51.1592 16.4441C50.2846 16.9185 49.2692 17.1556 48.113 17.1556ZM55.6297 17V5.12635H58.4091V12.9532L64.9685 5.12635H67.5034V17H64.7239V9.17318L58.1868 17H55.6297ZM71.2422 17V5.12635H74.0216V12.9532L80.581 5.12635H83.1158V17H80.3364V9.17318L73.7993 17H71.2422ZM77.0011 3.72553C75.8153 3.72553 74.9036 3.45129 74.2662 2.90282C73.6288 2.33953 73.3027 1.52423 73.2878 0.456941H75.1334C75.1482 0.990588 75.3113 1.41306 75.6225 1.72435C75.9487 2.03565 76.4008 2.19129 76.9789 2.19129C77.5422 2.19129 77.9869 2.03565 78.313 1.72435C78.654 1.41306 78.8318 0.990588 78.8467 0.456941H80.7367C80.7218 1.52423 80.3883 2.33953 79.7361 2.90282C79.0987 3.45129 78.187 3.72553 77.0011 3.72553ZM92.2578 17.1556C91.0127 17.1556 89.9009 16.8962 88.9226 16.3774C87.959 15.8438 87.203 15.1174 86.6546 14.1984C86.1061 13.2793 85.8318 12.2342 85.8318 11.0632C85.8318 9.87729 86.1061 8.83224 86.6546 7.928C87.203 7.00894 87.959 6.29 88.9226 5.77118C89.9009 5.25235 91.0127 4.99294 92.2578 4.99294C93.4141 4.99294 94.4295 5.23012 95.3041 5.70447C96.1935 6.164 96.868 6.84588 97.3275 7.75012L95.1929 8.99529C94.8371 8.432 94.3998 8.01694 93.881 7.75012C93.377 7.48329 92.8286 7.34988 92.2356 7.34988C91.5537 7.34988 90.9386 7.49812 90.3901 7.79459C89.8416 8.09106 89.4117 8.52094 89.1004 9.08424C88.7891 9.63271 88.6335 10.2924 88.6335 11.0632C88.6335 11.834 88.7891 12.5011 89.1004 13.0644C89.4117 13.6128 89.8416 14.0353 90.3901 14.3318C90.9386 14.6282 91.5537 14.7765 92.2356 14.7765C92.8286 14.7765 93.377 14.6431 93.881 14.3762C94.3998 14.1094 94.8371 13.6944 95.1929 13.1311L97.3275 14.3762C96.868 15.2656 96.1935 15.9549 95.3041 16.4441C94.4295 16.9185 93.4141 17.1556 92.2578 17.1556ZM108.291 17L103.999 11.3078L106.267 9.90694L111.559 17H108.291ZM99.7746 17V5.12635H102.554V17H99.7746ZM101.731 12.2416V9.92918H105.756V12.2416H101.731ZM106.534 11.3967L103.933 11.0854L108.291 5.12635H111.27L106.534 11.3967ZM113.52 17V5.12635H116.299V12.9532L122.858 5.12635H125.393V17H122.614V9.17318L116.077 17H113.52ZM134.669 17.1556C133.349 17.1556 132.193 16.8962 131.2 16.3774C130.222 15.8438 129.458 15.1174 128.91 14.1984C128.376 13.2793 128.109 12.2342 128.109 11.0632C128.109 9.87729 128.369 8.83224 128.888 7.928C129.421 7.00894 130.148 6.29 131.067 5.77118C132 5.25235 133.06 4.99294 134.246 4.99294C135.402 4.99294 136.433 5.24494 137.337 5.74894C138.241 6.25294 138.953 6.96447 139.472 7.88353C139.99 8.80259 140.25 9.88471 140.25 11.1299C140.25 11.2485 140.242 11.3819 140.228 11.5301C140.228 11.6784 140.22 11.8192 140.205 11.9526H130.311V10.1071H138.738L137.648 10.6852C137.663 10.0033 137.522 9.40294 137.226 8.88412C136.929 8.36529 136.522 7.95765 136.003 7.66118C135.499 7.36471 134.913 7.21647 134.246 7.21647C133.564 7.21647 132.964 7.36471 132.445 7.66118C131.941 7.95765 131.541 8.37271 131.244 8.90635C130.963 9.42518 130.822 10.0404 130.822 10.7519V11.1966C130.822 11.9081 130.985 12.5381 131.311 13.0866C131.637 13.6351 132.097 14.0575 132.69 14.354C133.283 14.6505 133.965 14.7987 134.735 14.7987C135.402 14.7987 136.003 14.6949 136.536 14.4874C137.07 14.2799 137.544 13.9538 137.96 13.5091L139.449 15.2212C138.916 15.8438 138.241 16.3255 137.426 16.6665C136.625 16.9926 135.706 17.1556 134.669 17.1556Z" fill="black"/>
<path d="M148.004 17.2224C146.922 17.2224 145.951 17.0445 145.091 16.6887C144.231 16.3329 143.557 15.8438 143.067 15.2212C142.578 14.5986 142.334 13.8796 142.334 13.0644C142.334 12.3232 142.497 11.6561 142.823 11.0632C143.149 10.4702 143.668 9.90694 144.379 9.37329C145.091 8.82482 146.002 8.27635 147.114 7.72788C147.989 7.298 148.671 6.92 149.16 6.59388C149.664 6.26776 150.012 5.95647 150.205 5.66C150.412 5.36353 150.516 5.05223 150.516 4.72612C150.516 4.28141 150.361 3.92565 150.049 3.65882C149.738 3.37718 149.293 3.23635 148.715 3.23635C148.093 3.23635 147.603 3.392 147.248 3.70329C146.907 3.99976 146.736 4.39259 146.736 4.88176C146.736 5.13376 146.781 5.37835 146.87 5.61553C146.973 5.85271 147.151 6.11953 147.403 6.416C147.655 6.71247 148.018 7.09047 148.493 7.55L156.72 15.4435L155.186 17.2446L146.292 8.70623C145.788 8.21706 145.38 7.76494 145.069 7.34988C144.757 6.93482 144.535 6.53459 144.402 6.14918C144.268 5.74894 144.201 5.34129 144.201 4.92623C144.201 4.19988 144.387 3.56247 144.757 3.014C145.128 2.4507 145.654 2.02082 146.336 1.72435C147.018 1.41306 147.811 1.25741 148.715 1.25741C149.56 1.25741 150.286 1.39823 150.894 1.67988C151.517 1.94671 151.999 2.33953 152.34 2.85835C152.695 3.36235 152.873 3.97012 152.873 4.68165C152.873 5.30423 152.718 5.88235 152.406 6.416C152.095 6.93482 151.606 7.43141 150.939 7.90576C150.286 8.38012 149.412 8.87671 148.315 9.39553C147.5 9.79576 146.855 10.1738 146.38 10.5295C145.906 10.8853 145.565 11.2411 145.358 11.5968C145.15 11.9526 145.046 12.3454 145.046 12.7753C145.046 13.2052 145.172 13.5832 145.424 13.9093C145.691 14.2354 146.062 14.4948 146.536 14.6875C147.01 14.8654 147.566 14.9544 148.204 14.9544C149.152 14.9544 150.012 14.7468 150.783 14.3318C151.569 13.9019 152.228 13.2645 152.762 12.4195C153.296 11.5746 153.681 10.5295 153.918 9.28435L156.164 10.0181C155.853 11.5153 155.312 12.8049 154.541 13.8871C153.785 14.9544 152.851 15.7771 151.739 16.3552C150.627 16.9333 149.382 17.2224 148.004 17.2224ZM159.323 17V1.43529H173.086V17H170.24V3.16965L170.907 3.88118H161.502L162.169 3.16965V17H159.323ZM183.745 17.1556C182.782 17.1556 181.9 16.9333 181.099 16.4886C180.314 16.0439 179.684 15.3768 179.209 14.4874C178.75 13.5832 178.52 12.4418 178.52 11.0632C178.52 9.66976 178.743 8.52835 179.187 7.63894C179.647 6.74953 180.269 6.08988 181.055 5.66C181.841 5.21529 182.737 4.99294 183.745 4.99294C184.917 4.99294 185.947 5.24494 186.836 5.74894C187.74 6.25294 188.452 6.95706 188.971 7.86129C189.504 8.76553 189.771 9.83282 189.771 11.0632C189.771 12.2935 189.504 13.3682 188.971 14.2873C188.452 15.1915 187.74 15.8956 186.836 16.3996C185.947 16.9036 184.917 17.1556 183.745 17.1556ZM177.164 21.3136V5.12635H179.81V7.928L179.721 11.0854L179.943 14.2428V21.3136H177.164ZM183.434 14.7765C184.101 14.7765 184.694 14.6282 185.213 14.3318C185.747 14.0353 186.169 13.6054 186.48 13.0421C186.792 12.4788 186.947 11.8192 186.947 11.0632C186.947 10.2924 186.792 9.63271 186.48 9.08424C186.169 8.52094 185.747 8.09106 185.213 7.79459C184.694 7.49812 184.101 7.34988 183.434 7.34988C182.767 7.34988 182.167 7.49812 181.633 7.79459C181.099 8.09106 180.677 8.52094 180.366 9.08424C180.054 9.63271 179.899 10.2924 179.899 11.0632C179.899 11.8192 180.054 12.4788 180.366 13.0421C180.677 13.6054 181.099 14.0353 181.633 14.3318C182.167 14.6282 182.767 14.7765 183.434 14.7765ZM197.829 17.1556C196.614 17.1556 195.532 16.8962 194.583 16.3774C193.634 15.8438 192.886 15.1174 192.337 14.1984C191.789 13.2793 191.515 12.2342 191.515 11.0632C191.515 9.87729 191.789 8.83224 192.337 7.928C192.886 7.00894 193.634 6.29 194.583 5.77118C195.532 5.25235 196.614 4.99294 197.829 4.99294C199.06 4.99294 200.149 5.25235 201.098 5.77118C202.062 6.29 202.81 7.00153 203.344 7.90576C203.892 8.81 204.167 9.86247 204.167 11.0632C204.167 12.2342 203.892 13.2793 203.344 14.1984C202.81 15.1174 202.062 15.8438 201.098 16.3774C200.149 16.8962 199.06 17.1556 197.829 17.1556ZM197.829 14.7765C198.511 14.7765 199.119 14.6282 199.653 14.3318C200.186 14.0353 200.601 13.6054 200.898 13.0421C201.209 12.4788 201.365 11.8192 201.365 11.0632C201.365 10.2924 201.209 9.63271 200.898 9.08424C200.601 8.52094 200.186 8.09106 199.653 7.79459C199.119 7.49812 198.519 7.34988 197.852 7.34988C197.17 7.34988 196.562 7.49812 196.028 7.79459C195.51 8.09106 195.095 8.52094 194.783 9.08424C194.472 9.63271 194.316 10.2924 194.316 11.0632C194.316 11.8192 194.472 12.4788 194.783 13.0421C195.095 13.6054 195.51 14.0353 196.028 14.3318C196.562 14.6282 197.162 14.7765 197.829 14.7765ZM212.315 17.1556C211.07 17.1556 209.958 16.8962 208.98 16.3774C208.017 15.8438 207.261 15.1174 206.712 14.1984C206.164 13.2793 205.889 12.2342 205.889 11.0632C205.889 9.87729 206.164 8.83224 206.712 7.928C207.261 7.00894 208.017 6.29 208.98 5.77118C209.958 5.25235 211.07 4.99294 212.315 4.99294C213.472 4.99294 214.487 5.23012 215.362 5.70447C216.251 6.164 216.926 6.84588 217.385 7.75012L215.25 8.99529C214.895 8.432 214.457 8.01694 213.939 7.75012C213.435 7.48329 212.886 7.34988 212.293 7.34988C211.611 7.34988 210.996 7.49812 210.448 7.79459C209.899 8.09106 209.469 8.52094 209.158 9.08424C208.847 9.63271 208.691 10.2924 208.691 11.0632C208.691 11.834 208.847 12.5011 209.158 13.0644C209.469 13.6128 209.899 14.0353 210.448 14.3318C210.996 14.6282 211.611 14.7765 212.293 14.7765C212.886 14.7765 213.435 14.6431 213.939 14.3762C214.457 14.1094 214.895 13.6944 215.25 13.1311L217.385 14.3762C216.926 15.2656 216.251 15.9549 215.362 16.4441C214.487 16.9185 213.472 17.1556 212.315 17.1556ZM222.213 17V6.81623L222.858 7.48329H218.033V5.12635H229.151V7.48329H224.348L224.993 6.81623V17H222.213ZM235.938 17.1556C234.722 17.1556 233.64 16.8962 232.691 16.3774C231.743 15.8438 230.994 15.1174 230.446 14.1984C229.897 13.2793 229.623 12.2342 229.623 11.0632C229.623 9.87729 229.897 8.83224 230.446 7.928C230.994 7.00894 231.743 6.29 232.691 5.77118C233.64 5.25235 234.722 4.99294 235.938 4.99294C237.168 4.99294 238.258 5.25235 239.206 5.77118C240.17 6.29 240.919 7.00153 241.452 7.90576C242.001 8.81 242.275 9.86247 242.275 11.0632C242.275 12.2342 242.001 13.2793 241.452 14.1984C240.919 15.1174 240.17 15.8438 239.206 16.3774C238.258 16.8962 237.168 17.1556 235.938 17.1556ZM235.938 14.7765C236.62 14.7765 237.227 14.6282 237.761 14.3318C238.295 14.0353 238.71 13.6054 239.006 13.0421C239.318 12.4788 239.473 11.8192 239.473 11.0632C239.473 10.2924 239.318 9.63271 239.006 9.08424C238.71 8.52094 238.295 8.09106 237.761 7.79459C237.227 7.49812 236.627 7.34988 235.96 7.34988C235.278 7.34988 234.67 7.49812 234.137 7.79459C233.618 8.09106 233.203 8.52094 232.892 9.08424C232.58 9.63271 232.425 10.2924 232.425 11.0632C232.425 11.8192 232.58 12.4788 232.892 13.0421C233.203 13.6054 233.618 14.0353 234.137 14.3318C234.67 14.6282 235.271 14.7765 235.938 14.7765ZM251.602 17.1556C250.639 17.1556 249.757 16.9333 248.956 16.4886C248.171 16.0439 247.541 15.3768 247.066 14.4874C246.607 13.5832 246.377 12.4418 246.377 11.0632C246.377 9.66976 246.599 8.52835 247.044 7.63894C247.504 6.74953 248.126 6.08988 248.912 5.66C249.697 5.21529 250.594 4.99294 251.602 4.99294C252.773 4.99294 253.804 5.24494 254.693 5.74894C255.597 6.25294 256.309 6.95706 256.828 7.86129C257.361 8.76553 257.628 9.83282 257.628 11.0632C257.628 12.2935 257.361 13.3682 256.828 14.2873C256.309 15.1915 255.597 15.8956 254.693 16.3996C253.804 16.9036 252.773 17.1556 251.602 17.1556ZM245.021 21.3136V5.12635H247.667V7.928L247.578 11.0854L247.8 14.2428V21.3136H245.021ZM251.291 14.7765C251.958 14.7765 252.551 14.6282 253.07 14.3318C253.603 14.0353 254.026 13.6054 254.337 13.0421C254.648 12.4788 254.804 11.8192 254.804 11.0632C254.804 10.2924 254.648 9.63271 254.337 9.08424C254.026 8.52094 253.603 8.09106 253.07 7.79459C252.551 7.49812 251.958 7.34988 251.291 7.34988C250.624 7.34988 250.024 7.49812 249.49 7.79459C248.956 8.09106 248.534 8.52094 248.222 9.08424C247.911 9.63271 247.756 10.2924 247.756 11.0632C247.756 11.8192 247.911 12.4788 248.222 13.0421C248.534 13.6054 248.956 14.0353 249.49 14.3318C250.024 14.6282 250.624 14.7765 251.291 14.7765ZM272.379 17V5.12635H275.158V17H272.379ZM266.175 9.03976C267.702 9.03976 268.858 9.38071 269.644 10.0626C270.445 10.7445 270.845 11.708 270.845 12.9532C270.845 14.2428 270.4 15.2508 269.511 15.9772C268.636 16.6887 267.391 17.0371 265.775 17.0222L260.394 17V5.12635H263.174V9.01753L266.175 9.03976ZM265.531 14.9766C266.346 14.9914 266.968 14.8209 267.398 14.4652C267.828 14.1094 268.043 13.5906 268.043 12.9087C268.043 12.2268 267.828 11.7376 267.398 11.4412C266.983 11.1299 266.361 10.9668 265.531 10.952L263.174 10.9298V14.9544L265.531 14.9766Z" fill="white"/>
</svg>
