<svg width="264" height="24" viewBox="0 0 264 24" fill="none" xmlns="http://www.w3.org/2000/svg">
<path d="M5.07082 2.124C7.11647 2.124 8.60624 2.5687 9.54012 3.45812C10.4888 4.3327 10.9632 5.54082 10.9632 7.08247C10.9632 7.77918 10.8594 8.44623 10.6519 9.08365C10.4444 9.70623 10.096 10.2695 9.60682 10.7735C9.13247 11.2627 8.50247 11.6481 7.71682 11.9298C6.93118 12.2114 5.96024 12.3522 4.804 12.3522H3.35871V18H0.00117657V2.124H5.07082ZM4.89294 4.88118H3.35871V9.59506H4.47047C5.10788 9.59506 5.65635 9.51353 6.11588 9.35047C6.57541 9.18741 6.93118 8.928 7.18318 8.57223C7.43518 8.21647 7.56118 7.75694 7.56118 7.19365C7.56118 6.408 7.34624 5.82988 6.91635 5.45929C6.48647 5.07388 5.812 4.88118 4.89294 4.88118ZM24.7253 11.9075C24.7253 12.9155 24.5844 13.8124 24.3028 14.598C24.036 15.3836 23.6431 16.0507 23.1243 16.5992C22.6203 17.1328 22.0051 17.5405 21.2788 17.8221C20.5524 18.0889 19.7297 18.2224 18.8107 18.2224C17.9657 18.2224 17.1801 18.0889 16.4537 17.8221C15.7422 17.5405 15.127 17.1328 14.6082 16.5992C14.0894 16.0507 13.6817 15.3836 13.3853 14.598C13.1036 13.8124 12.9628 12.9155 12.9628 11.9075C12.9628 10.5586 13.2 9.42459 13.6743 8.50553C14.1487 7.57165 14.8306 6.86012 15.72 6.37094C16.6094 5.88176 17.6618 5.63718 18.8774 5.63718C20.0188 5.63718 21.0268 5.88176 21.9014 6.37094C22.776 6.86012 23.4653 7.57165 23.9693 8.50553C24.4733 9.42459 24.7253 10.5586 24.7253 11.9075ZM16.3426 11.9075C16.3426 12.708 16.4241 13.3825 16.5871 13.9309C16.765 14.4646 17.0393 14.8722 17.4098 15.1539C17.7804 15.4207 18.2622 15.5541 18.8551 15.5541C19.4481 15.5541 19.9224 15.4207 20.2782 15.1539C20.6488 14.8722 20.9156 14.4646 21.0787 13.9309C21.2566 13.3825 21.3455 12.708 21.3455 11.9075C21.3455 11.1071 21.2566 10.44 21.0787 9.90635C20.9156 9.37271 20.6488 8.97247 20.2782 8.70565C19.9076 8.43882 19.4258 8.30541 18.8329 8.30541C17.9583 8.30541 17.3209 8.60929 16.9207 9.21706C16.5353 9.81 16.3426 10.7068 16.3426 11.9075ZM32.3996 18.2224C31.1989 18.2224 30.176 18.0074 29.3311 17.5775C28.4862 17.1328 27.8413 16.4509 27.3966 15.5319C26.9519 14.6128 26.7296 13.4344 26.7296 11.9965C26.7296 10.5141 26.9816 9.306 27.4856 8.37212C27.9896 7.43823 28.6863 6.74894 29.5757 6.30423C30.4799 5.85953 31.5176 5.63718 32.6886 5.63718C33.5187 5.63718 34.2377 5.7187 34.8454 5.88176C35.468 6.04482 36.0091 6.23753 36.4686 6.45988L35.4903 9.01694C34.9714 8.80941 34.4823 8.63894 34.0227 8.50553C33.578 8.37212 33.1333 8.30541 32.6886 8.30541C32.1105 8.30541 31.6287 8.44623 31.2433 8.72788C30.8579 8.99471 30.5689 9.40235 30.3762 9.95082C30.1983 10.4845 30.1093 11.1589 30.1093 11.9742C30.1093 12.7747 30.2057 13.4418 30.3984 13.9754C30.6059 14.4942 30.9024 14.8871 31.2878 15.1539C31.6732 15.4059 32.1402 15.5319 32.6886 15.5319C33.3853 15.5319 34.0005 15.4429 34.5342 15.2651C35.0678 15.0724 35.5866 14.8129 36.0906 14.4868V17.3107C35.5866 17.6368 35.053 17.8666 34.4897 18C33.9412 18.1482 33.2445 18.2224 32.3996 18.2224ZM43.8212 18.2224C42.6205 18.2224 41.5977 18.0074 40.7527 17.5775C39.9078 17.1328 39.263 16.4509 38.8183 15.5319C38.3736 14.6128 38.1512 13.4344 38.1512 11.9965C38.1512 10.5141 38.4032 9.306 38.9072 8.37212C39.4112 7.43823 40.1079 6.74894 40.9973 6.30423C41.9016 5.85953 42.9392 5.63718 44.1103 5.63718C44.9404 5.63718 45.6593 5.7187 46.2671 5.88176C46.8897 6.04482 47.4307 6.23753 47.8903 6.45988L46.9119 9.01694C46.3931 8.80941 45.9039 8.63894 45.4444 8.50553C44.9997 8.37212 44.555 8.30541 44.1103 8.30541C43.5321 8.30541 43.0504 8.44623 42.665 8.72788C42.2796 8.99471 41.9905 9.40235 41.7978 9.95082C41.6199 10.4845 41.531 11.1589 41.531 11.9742C41.531 12.7747 41.6273 13.4418 41.82 13.9754C42.0276 14.4942 42.324 14.8871 42.7094 15.1539C43.0949 15.4059 43.5618 15.5319 44.1103 15.5319C44.807 15.5319 45.4221 15.4429 45.9558 15.2651C46.4894 15.0724 47.0083 14.8129 47.5123 14.4868V17.3107C47.0083 17.6368 46.4746 17.8666 45.9113 18C45.3629 18.1482 44.6661 18.2224 43.8212 18.2224ZM53.5085 10.6624C53.5085 10.9144 53.4937 11.2256 53.464 11.5962C53.4492 11.9668 53.427 12.3448 53.3973 12.7302C53.3825 13.1156 53.3603 13.4566 53.3306 13.7531C53.301 14.0495 53.2787 14.2571 53.2639 14.3756L58.8672 5.85953H62.8473V18H59.6454V13.1527C59.6454 12.7525 59.6603 12.3152 59.6899 11.8408C59.7196 11.3516 59.7492 10.8995 59.7789 10.4845C59.8233 10.0546 59.853 9.72847 59.8678 9.50612L54.2867 18H50.3066V5.85953H53.5085V10.6624ZM77.939 0.634235C77.8649 1.40506 77.65 2.08694 77.2942 2.67988C76.9384 3.258 76.3825 3.71012 75.6265 4.03623C74.8705 4.36235 73.8551 4.52541 72.5803 4.52541C71.2758 4.52541 70.253 4.36976 69.5118 4.05847C68.7855 3.73235 68.2667 3.28023 67.9554 2.70212C67.6441 2.124 67.4588 1.4347 67.3995 0.634235H70.3568C70.4309 1.44953 70.6384 1.99059 70.9794 2.25741C71.3203 2.52423 71.8762 2.65765 72.647 2.65765C73.2844 2.65765 73.8032 2.51682 74.2035 2.23518C74.6185 1.9387 74.8631 1.40506 74.9372 0.634235H77.939ZM69.5118 10.6624C69.5118 10.9144 69.497 11.2256 69.4674 11.5962C69.4525 11.9668 69.4303 12.3448 69.4007 12.7302C69.3858 13.1156 69.3636 13.4566 69.334 13.7531C69.3043 14.0495 69.2821 14.2571 69.2672 14.3756L74.8705 5.85953H78.8507V18H75.6488V13.1527C75.6488 12.7525 75.6636 12.3152 75.6932 11.8408C75.7229 11.3516 75.7525 10.8995 75.7822 10.4845C75.8267 10.0546 75.8563 9.72847 75.8711 9.50612L70.2901 18H66.31V5.85953H69.5118V10.6624ZM87.2495 18.2224C86.0488 18.2224 85.026 18.0074 84.1811 17.5775C83.3361 17.1328 82.6913 16.4509 82.2466 15.5319C81.8019 14.6128 81.5795 13.4344 81.5795 11.9965C81.5795 10.5141 81.8315 9.306 82.3355 8.37212C82.8395 7.43823 83.5362 6.74894 84.4256 6.30423C85.3299 5.85953 86.3675 5.63718 87.5386 5.63718C88.3687 5.63718 89.0876 5.7187 89.6954 5.88176C90.318 6.04482 90.8591 6.23753 91.3186 6.45988L90.3402 9.01694C89.8214 8.80941 89.3322 8.63894 88.8727 8.50553C88.428 8.37212 87.9833 8.30541 87.5386 8.30541C86.9605 8.30541 86.4787 8.44623 86.0933 8.72788C85.7079 8.99471 85.4188 9.40235 85.2261 9.95082C85.0482 10.4845 84.9593 11.1589 84.9593 11.9742C84.9593 12.7747 85.0556 13.4418 85.2483 13.9754C85.4559 14.4942 85.7523 14.8871 86.1378 15.1539C86.5232 15.4059 86.9901 15.5319 87.5386 15.5319C88.2353 15.5319 88.8505 15.4429 89.3841 15.2651C89.9178 15.0724 90.4366 14.8129 90.9406 14.4868V17.3107C90.4366 17.6368 89.9029 17.8666 89.3396 18C88.7912 18.1482 88.0945 18.2224 87.2495 18.2224ZM101.695 5.85953H105.342L100.539 11.6852L105.764 18H102.006L97.048 11.8408V18H93.7349V5.85953H97.048V11.7519L101.695 5.85953ZM110.704 10.6624C110.704 10.9144 110.689 11.2256 110.659 11.5962C110.644 11.9668 110.622 12.3448 110.592 12.7302C110.578 13.1156 110.555 13.4566 110.526 13.7531C110.496 14.0495 110.474 14.2571 110.459 14.3756L116.062 5.85953H120.042V18H116.841V13.1527C116.841 12.7525 116.855 12.3152 116.885 11.8408C116.915 11.3516 116.944 10.8995 116.974 10.4845C117.018 10.0546 117.048 9.72847 117.063 9.50612L111.482 18H107.502V5.85953H110.704V10.6624ZM128.508 5.63718C129.635 5.63718 130.598 5.85212 131.399 6.282C132.214 6.71188 132.844 7.33447 133.289 8.14976C133.733 8.96506 133.956 9.96565 133.956 11.1515V12.7525H126.129C126.158 13.6864 126.433 14.4201 126.952 14.9538C127.485 15.4874 128.219 15.7542 129.153 15.7542C129.938 15.7542 130.65 15.6801 131.287 15.5319C131.925 15.3688 132.584 15.1242 133.266 14.7981V17.3552C132.673 17.6516 132.043 17.8666 131.376 18C130.724 18.1482 129.931 18.2224 128.997 18.2224C127.782 18.2224 126.707 18 125.773 17.5553C124.839 17.0958 124.105 16.4065 123.572 15.4874C123.038 14.5684 122.771 13.4121 122.771 12.0187C122.771 10.5956 123.008 9.41718 123.483 8.48329C123.972 7.53459 124.646 6.82306 125.506 6.3487C126.366 5.87435 127.367 5.63718 128.508 5.63718ZM128.53 7.99412C127.893 7.99412 127.359 8.20165 126.929 8.61671C126.514 9.03176 126.27 9.67659 126.196 10.5512H130.843C130.843 10.062 130.754 9.62471 130.576 9.23929C130.413 8.85388 130.161 8.55 129.82 8.32765C129.479 8.10529 129.049 7.99412 128.53 7.99412Z" fill="black"/>
<path d="M150.472 17.0439V18H134.908V17.0439H137.709C136.538 16.2286 135.953 15.0946 135.953 13.6419C135.953 11.8927 137.042 10.3955 139.221 9.15035C138.273 8.14235 137.798 7.08988 137.798 5.99294C137.798 4.896 138.228 3.97694 139.088 3.23576C139.948 2.47976 141.126 2.10176 142.623 2.10176C143.735 2.10176 144.728 2.42788 145.603 3.08012C146.492 3.71753 146.937 4.61435 146.937 5.77059C146.937 7.22329 145.877 8.57223 143.757 9.81741C144.424 10.6624 145.017 11.3665 145.536 11.9298C145.907 11.3368 146.174 10.6624 146.337 9.90635L148.849 11.5518C148.508 12.4856 148.093 13.3528 147.604 14.1533L149.516 16.0433L148.449 17.0439H150.472ZM139.177 13.5752C139.177 14.0347 139.37 14.4201 139.755 14.7314C140.14 15.0279 140.637 15.1761 141.245 15.1761C141.867 15.1761 142.586 14.7833 143.402 13.9976C142.453 12.9896 141.645 12.0928 140.978 11.3072C140.459 11.5592 140.029 11.8853 139.688 12.2855C139.347 12.6709 139.177 13.1008 139.177 13.5752ZM142.423 4.72553C142.097 4.72553 141.801 4.84412 141.534 5.08129C141.282 5.30365 141.156 5.61494 141.156 6.01518C141.156 6.40059 141.452 6.96388 142.045 7.70506C143.157 7.11212 143.713 6.55623 143.713 6.03741C143.713 5.60753 143.58 5.28141 143.313 5.05906C143.046 4.83671 142.749 4.72553 142.423 4.72553ZM145.381 16.1545C144.877 16.5695 144.41 16.866 143.98 17.0439H146.248L145.381 16.1545ZM152.478 18V2.124H165.041V18H161.683V4.92565H155.835V18H152.478ZM175.539 5.63718C176.902 5.63718 178.007 6.17082 178.852 7.23812C179.697 8.29059 180.119 9.84706 180.119 11.9075C180.119 13.2861 179.919 14.4498 179.519 15.3985C179.118 16.3324 178.57 17.0365 177.873 17.5108C177.177 17.9852 176.369 18.2224 175.45 18.2224C174.872 18.2224 174.368 18.1482 173.938 18C173.523 17.8518 173.167 17.6591 172.87 17.4219C172.574 17.1847 172.314 16.9327 172.092 16.6659H171.914C171.974 16.9475 172.018 17.244 172.048 17.5553C172.077 17.8518 172.092 18.1482 172.092 18.4447V23.3365H168.779V5.85953H171.47L171.936 7.43823H172.092C172.314 7.11212 172.581 6.81565 172.893 6.54882C173.204 6.26718 173.574 6.04482 174.004 5.88176C174.449 5.7187 174.96 5.63718 175.539 5.63718ZM174.471 8.28318C173.893 8.28318 173.434 8.40176 173.093 8.63894C172.752 8.87612 172.5 9.23929 172.337 9.72847C172.188 10.2028 172.107 10.8032 172.092 11.5295V11.8853C172.092 12.6709 172.166 13.338 172.314 13.8865C172.463 14.4201 172.715 14.8278 173.07 15.1094C173.426 15.3911 173.908 15.5319 174.516 15.5319C175.02 15.5319 175.435 15.3911 175.761 15.1094C176.087 14.8278 176.332 14.4127 176.495 13.8642C176.658 13.3158 176.739 12.6487 176.739 11.8631C176.739 10.6772 176.554 9.78776 176.183 9.19482C175.828 8.58706 175.257 8.28318 174.471 8.28318ZM193.879 11.9075C193.879 12.9155 193.738 13.8124 193.456 14.598C193.189 15.3836 192.796 16.0507 192.278 16.5992C191.774 17.1328 191.158 17.5405 190.432 17.8221C189.706 18.0889 188.883 18.2224 187.964 18.2224C187.119 18.2224 186.333 18.0889 185.607 17.8221C184.895 17.5405 184.28 17.1328 183.761 16.5992C183.243 16.0507 182.835 15.3836 182.539 14.598C182.257 13.8124 182.116 12.9155 182.116 11.9075C182.116 10.5586 182.353 9.42459 182.828 8.50553C183.302 7.57165 183.984 6.86012 184.873 6.37094C185.763 5.88176 186.815 5.63718 188.031 5.63718C189.172 5.63718 190.18 5.88176 191.055 6.37094C191.929 6.86012 192.619 7.57165 193.123 8.50553C193.627 9.42459 193.879 10.5586 193.879 11.9075ZM185.496 11.9075C185.496 12.708 185.577 13.3825 185.74 13.9309C185.918 14.4646 186.193 14.8722 186.563 15.1539C186.934 15.4207 187.415 15.5541 188.008 15.5541C188.601 15.5541 189.076 15.4207 189.431 15.1539C189.802 14.8722 190.069 14.4646 190.232 13.9309C190.41 13.3825 190.499 12.708 190.499 11.9075C190.499 11.1071 190.41 10.44 190.232 9.90635C190.069 9.37271 189.802 8.97247 189.431 8.70565C189.061 8.43882 188.579 8.30541 187.986 8.30541C187.112 8.30541 186.474 8.60929 186.074 9.21706C185.689 9.81 185.496 10.7068 185.496 11.9075ZM201.553 18.2224C200.352 18.2224 199.329 18.0074 198.484 17.5775C197.639 17.1328 196.995 16.4509 196.55 15.5319C196.105 14.6128 195.883 13.4344 195.883 11.9965C195.883 10.5141 196.135 9.306 196.639 8.37212C197.143 7.43823 197.84 6.74894 198.729 6.30423C199.633 5.85953 200.671 5.63718 201.842 5.63718C202.672 5.63718 203.391 5.7187 203.999 5.88176C204.621 6.04482 205.162 6.23753 205.622 6.45988L204.644 9.01694C204.125 8.80941 203.636 8.63894 203.176 8.50553C202.731 8.37212 202.287 8.30541 201.842 8.30541C201.264 8.30541 200.782 8.44623 200.397 8.72788C200.011 8.99471 199.722 9.40235 199.529 9.95082C199.352 10.4845 199.263 11.1589 199.263 11.9742C199.263 12.7747 199.359 13.4418 199.552 13.9754C199.759 14.4942 200.056 14.8871 200.441 15.1539C200.826 15.4059 201.293 15.5319 201.842 15.5319C202.539 15.5319 203.154 15.4429 203.687 15.2651C204.221 15.0724 204.74 14.8129 205.244 14.4868V17.3107C204.74 17.6368 204.206 17.8666 203.643 18C203.094 18.1482 202.398 18.2224 201.553 18.2224ZM218.089 8.34988H214.108V18H210.795V8.34988H206.815V5.85953H218.089V8.34988ZM231.14 11.9075C231.14 12.9155 230.999 13.8124 230.718 14.598C230.451 15.3836 230.058 16.0507 229.539 16.5992C229.035 17.1328 228.42 17.5405 227.694 17.8221C226.967 18.0889 226.144 18.2224 225.225 18.2224C224.38 18.2224 223.595 18.0889 222.868 17.8221C222.157 17.5405 221.542 17.1328 221.023 16.5992C220.504 16.0507 220.096 15.3836 219.8 14.598C219.518 13.8124 219.378 12.9155 219.378 11.9075C219.378 10.5586 219.615 9.42459 220.089 8.50553C220.563 7.57165 221.245 6.86012 222.135 6.37094C223.024 5.88176 224.077 5.63718 225.292 5.63718C226.434 5.63718 227.442 5.88176 228.316 6.37094C229.191 6.86012 229.88 7.57165 230.384 8.50553C230.888 9.42459 231.14 10.5586 231.14 11.9075ZM222.757 11.9075C222.757 12.708 222.839 13.3825 223.002 13.9309C223.18 14.4646 223.454 14.8722 223.825 15.1539C224.195 15.4207 224.677 15.5541 225.27 15.5541C225.863 15.5541 226.337 15.4207 226.693 15.1539C227.064 14.8722 227.33 14.4646 227.493 13.9309C227.671 13.3825 227.76 12.708 227.76 11.9075C227.76 11.1071 227.671 10.44 227.493 9.90635C227.33 9.37271 227.064 8.97247 226.693 8.70565C226.322 8.43882 225.841 8.30541 225.248 8.30541C224.373 8.30541 223.736 8.60929 223.335 9.21706C222.95 9.81 222.757 10.7068 222.757 11.9075ZM240.638 5.63718C242.001 5.63718 243.106 6.17082 243.951 7.23812C244.796 8.29059 245.218 9.84706 245.218 11.9075C245.218 13.2861 245.018 14.4498 244.618 15.3985C244.217 16.3324 243.669 17.0365 242.972 17.5108C242.276 17.9852 241.468 18.2224 240.549 18.2224C239.971 18.2224 239.467 18.1482 239.037 18C238.622 17.8518 238.266 17.6591 237.969 17.4219C237.673 17.1847 237.413 16.9327 237.191 16.6659H237.013C237.073 16.9475 237.117 17.244 237.147 17.5553C237.176 17.8518 237.191 18.1482 237.191 18.4447V23.3365H233.878V5.85953H236.569L237.035 7.43823H237.191C237.413 7.11212 237.68 6.81565 237.992 6.54882C238.303 6.26718 238.673 6.04482 239.103 5.88176C239.548 5.7187 240.059 5.63718 240.638 5.63718ZM239.57 8.28318C238.992 8.28318 238.533 8.40176 238.192 8.63894C237.851 8.87612 237.599 9.23929 237.436 9.72847C237.287 10.2028 237.206 10.8032 237.191 11.5295V11.8853C237.191 12.6709 237.265 13.338 237.413 13.8865C237.562 14.4201 237.814 14.8278 238.169 15.1094C238.525 15.3911 239.007 15.5319 239.615 15.5319C240.119 15.5319 240.534 15.3911 240.86 15.1094C241.186 14.8278 241.431 14.4127 241.594 13.8642C241.757 13.3158 241.838 12.6487 241.838 11.8631C241.838 10.6772 241.653 9.78776 241.282 9.19482C240.927 8.58706 240.356 8.28318 239.57 8.28318ZM247.949 18V5.85953H251.262V10.5512H252.863C254.108 10.5512 255.131 10.6846 255.931 10.9514C256.732 11.2034 257.325 11.5962 257.71 12.1299C258.11 12.6635 258.311 13.3306 258.311 14.1311C258.311 14.9167 258.125 15.5986 257.755 16.1767C257.399 16.7548 256.828 17.2069 256.043 17.5331C255.272 17.8444 254.249 18 252.974 18H247.949ZM252.796 15.7098C253.448 15.7098 253.975 15.5912 254.375 15.354C254.79 15.1168 254.997 14.724 254.997 14.1755C254.997 13.7012 254.805 13.3602 254.419 13.1527C254.049 12.9452 253.493 12.8414 252.752 12.8414H251.262V15.7098H252.796ZM260.067 18V5.85953H263.38V18H260.067Z" fill="#5DC1B0"/>
</svg>
